<?xml version="1.0" encoding="UTF-8"?>
<svg width="512" height="512" viewBox="0 0 512 512" fill="none" xmlns="http://www.w3.org/2000/svg">
  <rect width="512" height="512" rx="100" fill="#6366F1"/>
  <circle cx="256" cy="140" r="70" fill="white"/>
  <path d="M380 370C380 437.32 325.32 492 258 492C190.68 492 136 437.32 136 370C136 302.68 190.68 248 258 248C325.32 248 380 302.68 380 370Z" fill="white"/>
  <path d="M256 220L316 340H196L256 220Z" fill="#6366F1"/>
  <path d="M288 420C288 437.673 273.673 452 256 452C238.327 452 224 437.673 224 420C224 402.327 238.327 388 256 388C273.673 388 288 402.327 288 420Z" fill="#6366F1"/>
  <path d="M346 310C346 327.673 331.673 342 314 342C296.327 342 282 327.673 282 310C282 292.327 296.327 278 314 278C331.673 278 346 292.327 346 310Z" fill="#6366F1"/>
  <path d="M230 310C230 327.673 215.673 342 198 342C180.327 342 166 327.673 166 310C166 292.327 180.327 278 198 278C215.673 278 230 292.327 230 310Z" fill="#6366F1"/>
</svg> 